<svg id="Camada_1" data-name="Camada 1" xmlns="http://www.w3.org/2000/svg" viewBox="0 0 95.65 30.34"><defs><style>.cls-1{fill:#fff;}</style></defs><title>logo_ing</title><path class="cls-1" d="M46.64,21.65a.18.18,0,0,0-.2.18l-1.15,6.51c0,.13,0,.19.14.19h.84c.16,0,.19-.09.21-.19l1.15-6.51c0-.13,0-.18-.15-.18Zm2.43,0a.21.21,0,0,0-.21.18l-.15.79a.17.17,0,0,0,.17.18h.87a.22.22,0,0,0,.21-.18l.15-.79A.15.15,0,0,0,50,21.6Zm-.3,1.83a.2.2,0,0,0-.21.18l-.83,4.73c0,.12,0,.19.14.19h.83a.2.2,0,0,0,.22-.19l.83-4.73c0-.14,0-.18-.15-.18Zm5.33,0a.23.23,0,0,0-.24.18L52.32,27.4c-.07.17-.14.23-.21.23S52,27.57,52,27.4l-.2-3.79a.18.18,0,0,0-.16-.18h-.86c-.12,0-.19.06-.18.21L51,27.75a.87.87,0,0,0,1,.85,1.31,1.31,0,0,0,1.27-.85l1.86-4.11c0-.09,0-.21-.12-.21Zm2.38-1.83a.21.21,0,0,0-.22.18l-.14.79a.15.15,0,0,0,.16.18h.87a.22.22,0,0,0,.21-.18l.15-.79c0-.12,0-.18-.16-.18Zm-.31,1.83H57c.1,0,.18,0,.15.18l-.83,4.73a.19.19,0,0,1-.21.19h-.84c-.1,0-.16-.07-.14-.19L56,23.61a.2.2,0,0,1,.21-.18Zm6.06,1.36c0-.76-.36-1.42-1.6-1.42h-.47c-1.37,0-1.88.47-2.13,1.84l-.55,3.13c0,.14.05.19.14.19h.85a.18.18,0,0,0,.2-.19l.55-3.13c.11-.62.24-.85.76-.85h.51c.47,0,.56.23.56.52a1.86,1.86,0,0,1,0,.33l-.55,3.13c0,.11,0,.19.14.19h.85c.16,0,.19-.09.21-.19l.5-2.88a2.78,2.78,0,0,0,.07-.67Zm5.39-1c0-.1-.07-.14-.21-.18a8.07,8.07,0,0,0-1.77-.23c-1.45,0-2.28.58-2.57,2.27l-.11.69a2.77,2.77,0,0,0-.05.56c0,1.22.82,1.7,1.87,1.7a4,4,0,0,0,.83-.09v.08c-.08.6-.31.8-1,.8-.41,0-1.25-.07-1.65-.11h0a.2.2,0,0,0-.2.15l-.09.48s0,.05,0,.06.06.12.16.16a5.37,5.37,0,0,0,1.65.22c1.57,0,2.11-.51,2.35-1.83l.82-4.66s0-.05,0-.07Zm-1.3.65-.55,3.12a7.18,7.18,0,0,1-.88.08c-.6,0-.8-.25-.8-.73a3.25,3.25,0,0,1,.06-.57l.12-.69c.14-.87.46-1.29,1.2-1.29a4.28,4.28,0,0,1,.85.08Zm6.44-1.06c-.86,0-1.9.29-1.9,1.37A1.4,1.4,0,0,0,71.6,26l1,.65c.21.15.3.29.3.43,0,.42-.34.51-.78.51-.27,0-1-.05-1.45-.1-.15,0-.2,0-.22.14l-.09.54c0,.12,0,.18.13.21a6.74,6.74,0,0,0,1.63.18c1.07,0,2-.48,2-1.61a1.3,1.3,0,0,0-.67-1.14l-1.06-.72c-.24-.16-.27-.26-.27-.41,0-.34.36-.37.69-.37a13.57,13.57,0,0,1,1.43.1c.15,0,.19,0,.21-.17l.09-.51c0-.16,0-.18-.13-.21a6.38,6.38,0,0,0-1.6-.19Zm4.1.06.16-.88c0-.12,0-.2-.22-.18l-.8.14a.25.25,0,0,0-.21.18L75,27.25a1.71,1.71,0,0,0,0,.31c0,.74.53,1,1.22,1a7.64,7.64,0,0,0,1.07-.07.22.22,0,0,0,.2-.16l.1-.56c0-.1,0-.14-.17-.14h-.71c-.36,0-.5,0-.5-.26a1,1,0,0,1,0-.16l.51-2.92H78c.16,0,.2-.07.22-.18l.09-.54c0-.14-.06-.18-.16-.18Zm6,1.72a1.68,1.68,0,0,0-1.81-1.78,2.42,2.42,0,0,0-2.56,2.25l-.13.73a2.18,2.18,0,0,0,0,.44,1.71,1.71,0,0,0,1.81,1.81,2.41,2.41,0,0,0,2.55-2.25l.13-.73a2.5,2.5,0,0,0,.05-.47Zm-1.2.07a2,2,0,0,1,0,.4l-.14.73c-.15.84-.54,1.22-1.17,1.22a.72.72,0,0,1-.8-.82,2,2,0,0,1,0-.4l.14-.73c.16-.9.63-1.22,1.18-1.22a.72.72,0,0,1,.79.82Zm4.89-1.72c0-.11-.14-.13-.24-.13a5.74,5.74,0,0,0-1.88.26c-.17.06-.28.15-.3.27l-.77,4.44v0a.14.14,0,0,0,.14.15h.84a.23.23,0,0,0,.21-.19l.69-3.9a4.73,4.73,0,0,1,.89-.07c.21,0,.27-.06.29-.16l.13-.69v0Zm4.49,1.72a3.15,3.15,0,0,1,0,.52l-.07.43c0,.15-.09.23-.22.23H87.77a2.2,2.2,0,0,0,0,.37c0,.49.26.81.92.81a16.64,16.64,0,0,0,1.68-.1c.11,0,.19,0,.17.14l-.11.59c0,.15,0,.21-.23.24a8.62,8.62,0,0,1-1.81.15,1.68,1.68,0,0,1-1.78-1.81,3.56,3.56,0,0,1,0-.55l.1-.56a2.38,2.38,0,0,1,2.58-2.31,1.67,1.67,0,0,1,1.77,1.85Zm-1.18,0a.71.71,0,0,0-.77-.8c-.73,0-1.06.49-1.18,1.15h1.92a2.07,2.07,0,0,0,0-.35Zm4-1.83c-.86,0-1.9.29-1.9,1.37a1.4,1.4,0,0,0,.74,1.3l1,.65c.21.15.29.29.29.43,0,.42-.33.51-.77.51-.27,0-1-.05-1.45-.1-.15,0-.2,0-.22.14l-.09.54c0,.12,0,.18.13.21a6.74,6.74,0,0,0,1.63.18c1.07,0,2-.48,2-1.61a1.3,1.3,0,0,0-.67-1.14l-1.06-.72c-.24-.16-.27-.26-.27-.41,0-.34.36-.37.69-.37a13.57,13.57,0,0,1,1.43.1c.15,0,.19,0,.21-.17l.09-.51c0-.16,0-.18-.13-.21A6.38,6.38,0,0,0,93.91,23.37Z"/><path class="cls-1" d="M3.41,17.35H.61A.63.63,0,0,1,0,16.7L0,.79A.61.61,0,0,1,.65.18h2.8A.62.62,0,0,1,4.06.8L4,16.71A.64.64,0,0,1,3.41,17.35Z"/><path class="cls-1" d="M19.56,17.39H16.7a.61.61,0,0,1-.58-.64l0-10.52c0-1.49-.3-2.86-2.06-2.87H12.2c-1.76,0-2.07,1.36-2.07,2.85l0,10.53a.6.6,0,0,1-.58.63H6.66a.62.62,0,0,1-.58-.64l0-10.53C6.12,2.51,8.25,0,12.21,0H14.1c4,0,6.07,2.54,6.07,6.23l0,10.52A.61.61,0,0,1,19.56,17.39Z"/><path class="cls-1" d="M28.85,24.14a19.3,19.3,0,0,1-5.68-.74c-.43-.12-.61-.3-.61-.73V21.06a.54.54,0,0,1,.58-.52h.06c1.37.13,4.26.38,5.66.38,2.47,0,2.83-1.25,2.84-3.35v-.24a20.71,20.71,0,0,1-2.92.32c-4.9,0-7.27-2.9-7.25-7.65V7.66C21.54,2.91,23.92,0,28.82,0a25.18,25.18,0,0,1,6.11.81c.7.18.82.36.82.82l0,15.7c0,4.32-2.2,6.79-6.86,6.77ZM31.73,3.61a15.69,15.69,0,0,0-2.92-.28c-2.61,0-3.26,1.84-3.26,4.34V10c0,2.5.63,4.35,3.25,4.36a26.25,26.25,0,0,0,2.92-.24Z"/><path class="cls-1" d="M51.28,10.29l-9.92,0v.09c0,1.77.72,3.87,3.64,3.88,2.22,0,4.32-.18,5.6-.29h.09c.31,0,.55.15.55.45v2c0,.49-.09.7-.64.79a26.85,26.85,0,0,1-5.9.5c-3,0-7.36-1.66-7.35-7.65V7.79C37.36,3,40,.07,44.67.08s7.23,3.21,7.22,7.74V9.53c0,.48-.19.76-.61.76Zm-3.43-3c0-2.38-1.3-3.75-3.19-3.75S41.4,4.88,41.4,7.28V7.4l6.45,0Z"/><path class="cls-1" d="M63.77,17.35a16.5,16.5,0,0,1-3.92.38c-4,0-6.93-2.45-6.92-7.41V7.49c0-5,3-7.38,7-7.37a16.79,16.79,0,0,1,3.93.4c.51.12.63.31.63.79v2c0,.31-.25.46-.55.46h-.09a26.1,26.1,0,0,0-3.93-.23c-1.43,0-2.92.82-2.93,4v2.83c0,3.17,1.48,4,2.91,4a25.45,25.45,0,0,0,3.92-.2h.09c.31,0,.55.15.55.46v2C64.41,17,64.29,17.23,63.77,17.35Z"/><path class="cls-1" d="M72.56,17.76c-4.78,0-7.27-3.24-7.26-7.59V7.71c0-4.35,2.51-7.57,7.29-7.56s7.26,3.24,7.25,7.59v2.47c0,4.35-2.51,7.56-7.28,7.55Zm3.27-10c0-2.49-1.11-4.11-3.24-4.11s-3.26,1.6-3.27,4.1v2.46c0,2.49,1.11,4.11,3.24,4.11s3.26-1.6,3.27-4.09Z"/><path class="cls-1" d="M94.76,17.57H91.9a.61.61,0,0,1-.57-.64l0-10.53c0-1.49-.29-2.86-2.06-2.86H87.41c-1.77,0-2.08,1.36-2.08,2.86l0,10.52a.61.61,0,0,1-.58.64H81.86a.61.61,0,0,1-.57-.64l0-10.52c0-3.69,2.15-6.21,6.1-6.2H89.3c4,0,6.08,2.54,6.07,6.22l0,10.53A.6.6,0,0,1,94.76,17.57Z"/></svg>