<svg id="Camada_1" data-name="Camada 1" xmlns="http://www.w3.org/2000/svg" viewBox="0 0 86.01 12.62"><defs><style>.cls-1{fill:#fff;}.cls-2,.cls-3,.cls-4{fill:#c80c0f;}.cls-2{opacity:0.8;}.cls-3{opacity:0.6;}.cls-4{opacity:0.4;}</style></defs><title>logo_marelli</title><path class="cls-1" d="M33,4.89H30.84v4a2.19,2.19,0,0,0-1.43.61V4.89h-.66v5.2a1.76,1.76,0,0,1-2,2,1.86,1.86,0,0,1-2-2.08V4.89h-.66v5.2a2.4,2.4,0,0,0,2.64,2.64,2.41,2.41,0,0,0,2.67-2.11A1.66,1.66,0,0,1,30.84,9.5v3.12h.67V9.49h1.32A2.25,2.25,0,0,0,35.4,7.08c0-1.51-.92-2.19-2.45-2.19Zm-.1,4H31.51V5.51h1.26c1.26,0,1.95.45,1.95,1.64S34.18,8.87,32.85,8.87Z"/><path class="cls-1" d="M38.81,4.78c-1.86,0-3,1.14-3,4s1.09,3.94,2.9,3.94,3-1.15,3-4-1.1-3.94-2.9-3.94Zm0,7.32c-1.38,0-2.27-.84-2.27-3.38s.88-3.31,2.25-3.31S41,6.24,41,8.79,40.15,12.1,38.77,12.1Z"/><path class="cls-1" d="M21.06,9.18v0A2,2,0,0,0,22.83,7c0-1.52-1-2.15-2.54-2.15H18.5v7.73h.66V9.32h.74a1.45,1.45,0,0,1,1.34.84l1.43,2.46h.79L22,10.13a2,2,0,0,0-.91-1Zm-.81-.46H19.16V5.51h1c1.28,0,2,.43,2,1.61S21.37,8.72,20.25,8.72Z"/><path class="cls-1" d="M15.36,9.36H16.8v2.4a2.94,2.94,0,0,1-1.53.35c-1.57,0-2.45-.95-2.45-3.38,0-2.72,1.34-3.32,2.49-3.32a2.38,2.38,0,0,1,1.67.5l.43-.53a2.87,2.87,0,0,0-2-.6c-1.8,0-3.23,1.2-3.23,4s1,4,3,4A3.51,3.51,0,0,0,17.47,12V9.36h0V8.7H15.36Z"/><path class="cls-1" d="M85.8,12.62h-2V4.91l2-.65v8.36Zm-1-8.94a1.21,1.21,0,0,1-1.22-1.22,1.24,1.24,0,0,1,1.24-1.23A1.19,1.19,0,0,1,86,2.46,1.21,1.21,0,0,1,84.79,3.68Z"/><path class="cls-1" d="M67.89,4.82c-.22.48-.47.95-.68,1.44a4.65,4.65,0,0,0-.9-.13,2.15,2.15,0,0,0-1.38.45v6H63V6.09a4.54,4.54,0,0,1,2-1.34A4.87,4.87,0,0,1,68,4.59Z"/><polygon class="cls-1" points="52.26 1.4 49.09 9.51 45.58 1.4 43.77 1.4 43.77 12.62 45.38 12.62 45.38 5.86 48.16 12.62 49.71 12.62 52.33 5.66 52.33 12.62 54.31 12.62 54.31 1.4 52.26 1.4"/><path class="cls-1" d="M59.88,10.92a2.09,2.09,0,0,1-1.3.49,1.42,1.42,0,0,1-1.4-1.4,1.22,1.22,0,0,1,1.37-1.22h1.33v2.12Zm1.9-4A2.61,2.61,0,0,0,59,4.44a5.57,5.57,0,0,0-3,.85l.59,1.37A4.35,4.35,0,0,1,58.73,6a1.1,1.1,0,0,1,1.15,1v.32H58.31A2.7,2.7,0,0,0,55.42,10a2.79,2.79,0,0,0,2.94,2.76,4.81,4.81,0,0,0,3.37-1.39l.06-.06Z"/><path class="cls-1" d="M71.05,5.77c1.42,0,1.41,1.84,1.41,1.84H69.65c.24-1.95,1.4-1.84,1.4-1.84ZM73.8,10.5a5.3,5.3,0,0,1-2.21.73c-1,0-1.78-.81-1.79-2.35h4.41c0-2.1-.43-4.38-3.15-4.38-2.45,0-3.24,2.32-3.25,4.24a4.32,4.32,0,0,0,1.37,3.31,4,4,0,0,0,3.59.49,4.89,4.89,0,0,0,1.48-.71l.15-.1Z"/><path class="cls-1" d="M82.57,12.72c-1.85.17-3-.64-3-2.2V.47h1.89v10c0,.9.6.81,1.31.84V12.7Z"/><path class="cls-1" d="M78.64,12.72c-1.85.17-3-.64-3-2.2V.47h1.89v10c0,.9.6.81,1.31.84V12.7Z"/><rect class="cls-2" x="10" y="2.91" width="1.73" height="1.73" rx="0.44"/><rect class="cls-3" x="5.19" y="4.83" width="4.81" height="4.81" rx="1.22"/><path class="cls-3" d="M3.45,1.09H5a.8.8,0,0,1,.8.8V3.43a.8.8,0,0,1-.8.8H3.45a.8.8,0,0,1-.8-.8V1.89A.79.79,0,0,1,3.45,1.09Z"/><rect class="cls-4" x="0.72" y="4.59" width="2.24" height="2.24" rx="0.57"/></svg>